<svg height="256" viewBox="0 0 256 256" width="256" xmlns="http://www.w3.org/2000/svg"><path d="m176.57591 79.535719q0 12.004003-3.91338 21.435721-3.9134 9.30923-10.28663 16.53612-6.26143 6.98193-14.42362 13.10644-8.16222 6.1245-17.33072 11.88153v27.5602h-20.01417v-37.35941q7.2677-4.53212 15.65354-9.92167 8.49765-5.38957 13.86458-10.90161 6.48503-6.36947 10.06299-13.106417 3.57796-6.859423 3.57796-17.393552 0-13.841359-8.60947-20.578302-8.49764-6.859433-22.02678-6.859433-12.0756 0-22.92126 4.164655-10.733868 4.164656-16.995274 8.451803h-1.118108v-24.987938q7.826774-3.307228 19.790562-5.879514 12.0756-2.694775 22.80945-2.694775 24.03937 0 37.90395 12.861435 13.97638 12.738947 13.97638 33.684717zm-44.16538 139.515961h-22.80945v-25.84537h22.80945z" style="fill:#00ff7f;fill-opacity:1;stroke:#000;stroke-width:6;stroke-dasharray:none;stroke-opacity:1"/></svg>